# xmcd
#
# Track frame offsets:
#	150
#	22109
#	36265
#	50425
#	68302
#	88551
#	105030
#	123844
#	139927
#	153220
#	167551
#	179667
#	196955
#	211950
#	222887
#	242543
#	257697
#
# Disc length: 4070 seconds
#
# Revision: 0
# Processed by: cddbd v1.5.1PL0 Copyright (c) Steve Scherf et al.
# Submitted via: dBpowerAMP V4.0
#
DISCID=de0fe411
DTITLE=Annie and Amy - Where I Belong
DYEAR=1900
DGENRE=country
TTITLE0=Wyoming, Where I belong
TTITLE1=Spirit of the West
TTITLE2=Wing and a prayer
TTITLE3=Say You'll always love me
TTITLE4=Good for Lovin man
TTITLE5=I want you to want me
TTITLE6=Uncomfortably good
TTITLE7=Gettin over gettin over you
TTITLE8=Ain't it just like a man
TTITLE9=Cow wow boy
TTITLE10=Baby won't you be mine
TTITLE11=Talkin' in Myself
TTITLE12=When a woman needs
TTITLE13=Dear Mary
TTITLE14=Cheyenne Song
TTITLE15=Do it for your mama
TTITLE16=Live at the Grand Ole Opry
EXTD=
EXTT0=
EXTT1=
EXTT2=
EXTT3=
EXTT4=
EXTT5=
EXTT6=
EXTT7=
EXTT8=
EXTT9=
EXTT10=
EXTT11=
EXTT12=
EXTT13=
EXTT14=
EXTT15=
EXTT16=
PLAYORDER=
